# xmcd CD database file
#
# Track frame offsets:
#	150
#	35185
#	64707
#	104107
#	137437
#	168485
#	204095
#	227515
#	262717
#	288480
#
# Disc length: 4217 seconds
#
# Revision: 0
# Processed by: cddbd v1.5.2PL0 Copyright (c) Steve Scherf et al.
# Submitted via: CDex 1.70beta2
#
DISCID=8910770a
DTITLE=五十嵐一生 - Summer's Almost Gone
DYEAR=1997
DGENRE=Jazz
TTITLE0=The Summer Knows
TTITLE1=Summer's Almost Gone
TTITLE2=No Woman No Cry
TTITLE3=The Most Beautiful Gir In The World
TTITLE4=Rosanna
TTITLE5=The Side Winder
TTITLE6=Jealous Guy
TTITLE7=Master Blaster
TTITLE8=Boulevard Of Broken Dreams
TTITLE9=Solitude
EXTD=YEAR: 1997
EXTT0=
EXTT1=
EXTT2=
EXTT3=
EXTT4=
EXTT5=
EXTT6=
EXTT7=
EXTT8=
EXTT9=
PLAYORDER=
